<svg xmlns="http://www.w3.org/2000/svg" viewBox="0 0 126.44 39.15"><defs><style>.cls-1{fill:#fff;}</style></defs><g id="Layer_2" data-name="Layer 2"><g id="Layer_1-2" data-name="Layer 1"><path class="cls-1" d="M43.59,19.65v-.76l1.47-.49a.72.72,0,0,0,.33-.21.52.52,0,0,0,.13-.38V6.53a.53.53,0,0,0-.13-.38.7.7,0,0,0-.33-.2l-1.47-.48V4.71H56v4H55L54.2,6.52A1.3,1.3,0,0,0,54,6.23a.38.38,0,0,0-.29-.11h-5v5.06h3a.41.41,0,0,0,.32-.1.59.59,0,0,0,.14-.26l.66-1.72h.88v5.56h-.88L52.21,13a.69.69,0,0,0-.14-.27.38.38,0,0,0-.32-.11h-3v5.65h5.87a.39.39,0,0,0,.29-.1.78.78,0,0,0,.15-.29l.74-2.48h1v4.3Z" transform="translate(0 -4.37)"/><path class="cls-1" d="M58.54,19.05l-.19-4.29h1l.82,2.09a.71.71,0,0,0,.21.31,1.37,1.37,0,0,0,.27.24,6.65,6.65,0,0,0,1.07.54,10,10,0,0,0,1.25.39,4.54,4.54,0,0,0,1.06.14,3,3,0,0,0,2-.67,2.17,2.17,0,0,0,.77-1.69,1.83,1.83,0,0,0-.5-1.35,4.18,4.18,0,0,0-1.45-.87,14.83,14.83,0,0,0-1.68-.54,14.22,14.22,0,0,1-1.64-.53,4.5,4.5,0,0,1-2-1.57,4,4,0,0,1-.74-2.4,3.72,3.72,0,0,1,.76-2.3,5.2,5.2,0,0,1,2-1.59,6.52,6.52,0,0,1,2.77-.59,17,17,0,0,1,1.75.1c.58.07,1.13.16,1.66.26s1,.22,1.4.34v4h-1l-.76-2a.66.66,0,0,0-.2-.29A2.53,2.53,0,0,0,67,6.63a3.57,3.57,0,0,0-.78-.37,8.48,8.48,0,0,0-1-.27,4.66,4.66,0,0,0-.91-.1,2.46,2.46,0,0,0-1.8.62,1.84,1.84,0,0,0-.64,1.36,2.22,2.22,0,0,0,.43,1.38,3.26,3.26,0,0,0,1.57,1c.54.18,1.06.35,1.58.48a15,15,0,0,1,1.69.59,5.36,5.36,0,0,1,1.4.81,3.92,3.92,0,0,1,1.07,1.28A3.82,3.82,0,0,1,70,15.22a4.4,4.4,0,0,1-.66,2.3,4.79,4.79,0,0,1-2.06,1.78,8.11,8.11,0,0,1-3.59.69,12.78,12.78,0,0,1-1.71-.13c-.59-.09-1.17-.21-1.75-.35S59.06,19.21,58.54,19.05Z" transform="translate(0 -4.37)"/><path class="cls-1" d="M71.36,19.65v-.76l1.47-.49a.7.7,0,0,0,.33-.2.56.56,0,0,0,.13-.39V6.53a.56.56,0,0,0-.14-.39A.63.63,0,0,0,72.83,6l-1.47-.48V4.71H78.5v.76L77,6a.77.77,0,0,0-.34.2.55.55,0,0,0-.13.38V18.22h5.1a.34.34,0,0,0,.3-.17,1,1,0,0,0,.16-.35l.82-2.94h1v4.89Z" transform="translate(0 -4.37)"/><path class="cls-1" d="M85.1,19.05l-.19-4.29h1l.82,2.09a.71.71,0,0,0,.21.31,1.37,1.37,0,0,0,.27.24,6.65,6.65,0,0,0,1.07.54,10,10,0,0,0,1.25.39,4.54,4.54,0,0,0,1.06.14,3,3,0,0,0,2-.67,2.17,2.17,0,0,0,.76-1.69,1.82,1.82,0,0,0-.49-1.35,4.18,4.18,0,0,0-1.45-.87,14.83,14.83,0,0,0-1.68-.54,14.22,14.22,0,0,1-1.64-.53,4.5,4.5,0,0,1-2-1.57,4,4,0,0,1-.74-2.4,3.72,3.72,0,0,1,.76-2.3,5.2,5.2,0,0,1,2-1.59,6.52,6.52,0,0,1,2.77-.59,17,17,0,0,1,1.75.1c.58.07,1.13.16,1.66.26s1,.22,1.4.34v4h-1l-.76-2a.76.76,0,0,0-.2-.29,2.53,2.53,0,0,0-.26-.23,3.57,3.57,0,0,0-.78-.37,8.48,8.48,0,0,0-1-.27,4.66,4.66,0,0,0-.91-.1,2.46,2.46,0,0,0-1.8.62,1.84,1.84,0,0,0-.64,1.36,2.22,2.22,0,0,0,.43,1.38,3.27,3.27,0,0,0,1.56,1c.54.18,1.07.35,1.59.48a15,15,0,0,1,1.69.59,5.36,5.36,0,0,1,1.4.81,3.92,3.92,0,0,1,1.07,1.28,3.82,3.82,0,0,1,.42,1.84,4.4,4.4,0,0,1-.66,2.3A4.79,4.79,0,0,1,93.8,19.3a8.11,8.11,0,0,1-3.59.69,12.78,12.78,0,0,1-1.71-.13c-.59-.09-1.17-.21-1.75-.35S85.62,19.21,85.1,19.05Z" transform="translate(0 -4.37)"/><path class="cls-1" d="M110.25,16.38h.57v1.28a10.47,10.47,0,0,1-1.46,1,9.76,9.76,0,0,1-1.93.9,6.38,6.38,0,0,1-2.16.38,7.83,7.83,0,0,1-3.89-.94,6.49,6.49,0,0,1-2.56-2.68,8.9,8.9,0,0,1-.9-4.14,8.31,8.31,0,0,1,1-4.1,7,7,0,0,1,2.63-2.74,7.33,7.33,0,0,1,3.77-1,12.51,12.51,0,0,1,1.72.14c.63.09,1.25.19,1.85.31a10.9,10.9,0,0,1,1.45.38V9.05h-1l-.71-1.94a.61.61,0,0,0-.2-.28,2.23,2.23,0,0,0-.3-.2,6.94,6.94,0,0,0-1.25-.54,5,5,0,0,0-1.42-.2,3.47,3.47,0,0,0-2.94,1.5,7.41,7.41,0,0,0-1.1,4.43,7.33,7.33,0,0,0,1.27,4.64,4.34,4.34,0,0,0,3.64,1.62,5,5,0,0,0,1.62-.24,5,5,0,0,0,1.26-.63C109.57,16.94,109.92,16.67,110.25,16.38Z" transform="translate(0 -4.37)"/><path class="cls-1" d="M110.63,19.65v-.76l1-.43a1.06,1.06,0,0,0,.59-.6L116.53,7l1.29-2.49h1.77l5.23,13.38a1.16,1.16,0,0,0,.23.36,1.06,1.06,0,0,0,.34.24l1,.42v.76h-6.62v-.76l1.83-.53-3.47-8.78-.43-1.44h-.13l-3.88,10.17,1.81.58v.76ZM115,14.59l.55-1.4h4.2l.55,1.4Z" transform="translate(0 -4.37)"/><path class="cls-1" d="M42.94,31.54v-.36l.51-.21a.57.57,0,0,0,.29-.32l2.12-5.78.63-1.31H47l2.64,7.1a.72.72,0,0,0,.11.19.38.38,0,0,0,.16.13l.52.2v.36H47.67v-.36l.89-.28-1.89-5.12L46.44,25h-.06l-2.07,5.85.89.3v.36Zm2-2.81.22-.65h2.42l.23.65Z" transform="translate(0 -4.37)"/><path class="cls-1" d="M55.19,30.16h.13v.56a5.53,5.53,0,0,1-.89.64,2.54,2.54,0,0,1-2.55-.07A2.52,2.52,0,0,1,51,30.24a3.45,3.45,0,0,1-.3-1.47A3.37,3.37,0,0,1,51,27.53a3.14,3.14,0,0,1,.63-1,2.79,2.79,0,0,1,2.07-.91,2.45,2.45,0,0,1,.71.09,2.2,2.2,0,0,1,.48.18l.32.17-.07,1h-.21l-.53-.36a2.6,2.6,0,0,0-.57-.31,1.71,1.71,0,0,0-.7-.13,1.24,1.24,0,0,0-.8.37,1.89,1.89,0,0,0-.22.36,2.59,2.59,0,0,0-.2.58,4.41,4.41,0,0,0-.07.88,2.92,2.92,0,0,0,.46,1.76,1.59,1.59,0,0,0,1.37.64,1.53,1.53,0,0,0,.64-.13,3,3,0,0,0,.53-.29A4,4,0,0,0,55.19,30.16Z" transform="translate(0 -4.37)"/><path class="cls-1" d="M60.47,30.16h.12v.56a4.76,4.76,0,0,1-.89.64,2.33,2.33,0,0,1-1.22.31,2.3,2.3,0,0,1-1.32-.38,2.63,2.63,0,0,1-.86-1.05,3.45,3.45,0,0,1-.3-1.47,3.37,3.37,0,0,1,.23-1.24,3.14,3.14,0,0,1,.63-1,2.79,2.79,0,0,1,2.07-.91,2.33,2.33,0,0,1,.7.09,2.11,2.11,0,0,1,.49.18l.32.17-.08,1h-.2l-.53-.36a3.15,3.15,0,0,0-.57-.31,1.73,1.73,0,0,0-.71-.13.91.91,0,0,0-.42.11.94.94,0,0,0-.37.26,2.53,2.53,0,0,0-.23.36,2.62,2.62,0,0,0-.19.58,4.33,4.33,0,0,0-.08.88,2.92,2.92,0,0,0,.47,1.76,1.58,1.58,0,0,0,1.37.64,1.45,1.45,0,0,0,.63-.13,2.77,2.77,0,0,0,.54-.29C60.23,30.36,60.36,30.25,60.47,30.16Z" transform="translate(0 -4.37)"/><path class="cls-1" d="M63.91,31.68a2.5,2.5,0,0,1-1.38-.37,2.4,2.4,0,0,1-.92-1,3.67,3.67,0,0,1-.32-1.61,3.55,3.55,0,0,1,.32-1.55A2.68,2.68,0,0,1,62.54,26,2.48,2.48,0,0,1,64,25.61a2.37,2.37,0,0,1,1.47.43,2.52,2.52,0,0,1,.87,1.11,3.87,3.87,0,0,1,.28,1.49,3.5,3.5,0,0,1-.32,1.53,2.55,2.55,0,0,1-.92,1.1A2.44,2.44,0,0,1,63.91,31.68Zm.08-.52a1.15,1.15,0,0,0,.73-.22,1.62,1.62,0,0,0,.47-.59,3.22,3.22,0,0,0,.24-.78,5.92,5.92,0,0,0,.07-.82,5.08,5.08,0,0,0-.16-1.24,2.45,2.45,0,0,0-.51-1,1.21,1.21,0,0,0-.94-.39,1.19,1.19,0,0,0-.74.23,1.58,1.58,0,0,0-.46.58,3,3,0,0,0-.24.77,4.59,4.59,0,0,0-.07.81,5.63,5.63,0,0,0,.07.9,3.45,3.45,0,0,0,.27.86,1.74,1.74,0,0,0,.49.64A1.23,1.23,0,0,0,64,31.16Z" transform="translate(0 -4.37)"/><path class="cls-1" d="M70.94,31.54v-.35l.54-.19a.37.37,0,0,0,.16-.1.3.3,0,0,0,.06-.2V28a4.51,4.51,0,0,0-.08-.89,1.08,1.08,0,0,0-.33-.57,1.19,1.19,0,0,0-.74-.19,2.18,2.18,0,0,0-.69.12,1.21,1.21,0,0,0-.59.46v3.75a.26.26,0,0,0,.06.18.34.34,0,0,0,.16.1l.5.2v.35H67.44v-.35l.62-.19a.34.34,0,0,0,.16-.1.29.29,0,0,0,.06-.19V26.88a.28.28,0,0,0-.07-.21.44.44,0,0,0-.19-.12l-.58-.24V26l1.76-.33v.93h0a2.21,2.21,0,0,1,.86-.79,2.12,2.12,0,0,1,.88-.19,2.15,2.15,0,0,1,.68.11,1.58,1.58,0,0,1,.56.36,1.54,1.54,0,0,1,.37.68l.1.08V30.7a.22.22,0,0,0,.07.19.31.31,0,0,0,.15.1l.49.2v.35Zm3.41,0v-.35L74.9,31a.39.39,0,0,0,.17-.11.28.28,0,0,0,.06-.2V28a3.81,3.81,0,0,0-.09-.89,1,1,0,0,0-.33-.57,1.17,1.17,0,0,0-.74-.19,2,2,0,0,0-.71.14,1.2,1.2,0,0,0-.62.52l-.14-.21a3.28,3.28,0,0,1,.71-.83,1.57,1.57,0,0,1,.63-.32,2.26,2.26,0,0,1,.56-.07,1.88,1.88,0,0,1,.86.2,1.52,1.52,0,0,1,.63.65,2.47,2.47,0,0,1,.23,1.13V30.7a.25.25,0,0,0,.06.19.31.31,0,0,0,.15.1l.55.2v.35Z" transform="translate(0 -4.37)"/><path class="cls-1" d="M81.07,31.54v-.35l.54-.19a.37.37,0,0,0,.16-.1.3.3,0,0,0,.06-.2V28a4.51,4.51,0,0,0-.08-.89,1.08,1.08,0,0,0-.33-.57,1.19,1.19,0,0,0-.74-.19,2.18,2.18,0,0,0-.69.12,1.21,1.21,0,0,0-.59.46v3.75a.26.26,0,0,0,.06.18.39.39,0,0,0,.16.1l.5.2v.35H77.57v-.35l.62-.19a.29.29,0,0,0,.16-.1.29.29,0,0,0,.06-.19V26.88a.28.28,0,0,0-.07-.21.44.44,0,0,0-.19-.12l-.58-.24V26l1.76-.33v.93h0a2.21,2.21,0,0,1,.86-.79,2.12,2.12,0,0,1,.88-.19,2.15,2.15,0,0,1,.68.11,1.5,1.5,0,0,1,.56.36,1.54,1.54,0,0,1,.37.68l.1.08V30.7a.22.22,0,0,0,.07.19A.31.31,0,0,0,83,31l.49.2v.35Zm3.41,0v-.35L85,31a.36.36,0,0,0,.16-.11.28.28,0,0,0,.06-.2V28a3.81,3.81,0,0,0-.09-.89,1,1,0,0,0-.33-.57,1.17,1.17,0,0,0-.74-.19,2,2,0,0,0-.71.14,1.2,1.2,0,0,0-.62.52l-.14-.21a3.28,3.28,0,0,1,.71-.83,1.57,1.57,0,0,1,.63-.32,2.26,2.26,0,0,1,.56-.07,1.88,1.88,0,0,1,.86.2,1.52,1.52,0,0,1,.63.65,2.47,2.47,0,0,1,.23,1.13V30.7a.25.25,0,0,0,.06.19.34.34,0,0,0,.16.1l.54.2v.35Z" transform="translate(0 -4.37)"/><path class="cls-1" d="M90.38,31.68A2.5,2.5,0,0,1,89,31.31a2.4,2.4,0,0,1-.92-1,3.82,3.82,0,0,1-.32-1.61,3.7,3.7,0,0,1,.32-1.55A2.68,2.68,0,0,1,89,26a2.51,2.51,0,0,1,1.43-.41,2.4,2.4,0,0,1,1.48.43,2.57,2.57,0,0,1,.86,1.11,3.88,3.88,0,0,1,.29,1.49,3.5,3.5,0,0,1-.33,1.53,2.55,2.55,0,0,1-.92,1.1A2.44,2.44,0,0,1,90.38,31.68Zm.08-.52a1.18,1.18,0,0,0,.74-.22,1.71,1.71,0,0,0,.46-.59,3.22,3.22,0,0,0,.24-.78,5.92,5.92,0,0,0,.07-.82,4.63,4.63,0,0,0-.16-1.24,2.45,2.45,0,0,0-.51-1,1.2,1.2,0,0,0-.94-.39,1.14,1.14,0,0,0-.73.23,1.51,1.51,0,0,0-.47.58,3,3,0,0,0-.24.77,4.59,4.59,0,0,0-.07.81,5.67,5.67,0,0,0,.08.9,3.07,3.07,0,0,0,.26.86,1.74,1.74,0,0,0,.49.64A1.25,1.25,0,0,0,90.46,31.16Z" transform="translate(0 -4.37)"/><path class="cls-1" d="M96.13,31.66A1.89,1.89,0,0,1,95,31.29a2.37,2.37,0,0,1-.74-1A3.61,3.61,0,0,1,94,28.86a4.17,4.17,0,0,1,.31-1.64,2.77,2.77,0,0,1,.89-1.17,2.26,2.26,0,0,1,1.39-.44,1.74,1.74,0,0,1,.81.17,2,2,0,0,1,.53.4v-2a.35.35,0,0,0-.06-.21.48.48,0,0,0-.2-.12l-.71-.27v-.31l2-.21v7.41a.32.32,0,0,0,.07.2.77.77,0,0,0,.2.13l.58.22v.32L98,31.65H98v-1h0a2.2,2.2,0,0,1-.65.67,1.8,1.8,0,0,1-.65.26A2.76,2.76,0,0,1,96.13,31.66Zm.55-.76a2,2,0,0,0,.87-.24,1.17,1.17,0,0,0,.35-.35V26.54a1,1,0,0,0-.36-.17,2.36,2.36,0,0,0-.46-.1,1.87,1.87,0,0,0-.37,0,1.43,1.43,0,0,0-.95.31,1.84,1.84,0,0,0-.56.81A3.31,3.31,0,0,0,95,28.46a4.39,4.39,0,0,0,.17,1.25,1.91,1.91,0,0,0,.54.87A1.42,1.42,0,0,0,96.68,30.9Z" transform="translate(0 -4.37)"/><path class="cls-1" d="M102,31.66a1.46,1.46,0,0,1-.82-.23,1.5,1.5,0,0,1-.53-.59,1.71,1.71,0,0,1-.18-.77,1.61,1.61,0,0,1,.25-.93,2.18,2.18,0,0,1,.67-.61,3.26,3.26,0,0,1,.85-.33,3.67,3.67,0,0,1,.83-.1h.24l.32,0,.23,0v-.88a.86.86,0,0,0-1-1,1.64,1.64,0,0,0-.53.09,3.71,3.71,0,0,0-.49.24l-.44.29-.34.25H101l-.08-1,.57-.24a5.56,5.56,0,0,1,.65-.18,3.87,3.87,0,0,1,.8-.08,2.83,2.83,0,0,1,1,.16,1.61,1.61,0,0,1,.75.57,1.81,1.81,0,0,1,.29,1.13l0,3a.4.4,0,0,0,.14.31.53.53,0,0,0,.35.12,1,1,0,0,0,.23-.05l.27-.1h.07v.39l-.28.2c-.13.07-.26.14-.4.2a1,1,0,0,1-.38.09.94.94,0,0,1-.69-.23,1,1,0,0,1-.23-.75h0a2.17,2.17,0,0,1-.61.63,2.23,2.23,0,0,1-.67.28A3.47,3.47,0,0,1,102,31.66Zm.51-.74a2.11,2.11,0,0,0,.73-.15,1.34,1.34,0,0,0,.62-.47V28.6a6.27,6.27,0,0,0-1.22.11,1.74,1.74,0,0,0-.82.38,1,1,0,0,0-.29.77,1.19,1.19,0,0,0,.15.64.83.83,0,0,0,.38.32A1.22,1.22,0,0,0,102.55,30.92Z" transform="translate(0 -4.37)"/><path class="cls-1" d="M110,25.79l-.08.57H108v3.85a.48.48,0,0,0,.18.39,1.1,1.1,0,0,0,.43.22,1.27,1.27,0,0,0,.83,0,1.92,1.92,0,0,0,.34-.11H110v.4l-.33.19a4.43,4.43,0,0,1-.53.23,1.84,1.84,0,0,1-.62.11,1.89,1.89,0,0,1-.72-.14,1.21,1.21,0,0,1-.52-.39.94.94,0,0,1-.2-.62V26.36h-.88v-.43l.5-.12a.69.69,0,0,0,.34-.23,1,1,0,0,0,.15-.54l0-.76.84-.18v1.69Z" transform="translate(0 -4.37)"/><path class="cls-1" d="M110.48,31.54v-.35l.72-.2a.35.35,0,0,0,.17-.09.29.29,0,0,0,.06-.19v-3.8a.28.28,0,0,0-.07-.21.52.52,0,0,0-.19-.12l-.68-.25V26l1.94-.33v5a.29.29,0,0,0,.06.19.24.24,0,0,0,.15.09l.71.2v.35Zm1.37-7a.74.74,0,0,1-.36-.09.63.63,0,0,1-.26-.25.61.61,0,0,1-.1-.36.69.69,0,0,1,.21-.53.72.72,0,0,1,.51-.19.79.79,0,0,1,.53.18.65.65,0,0,1,.2.5.8.8,0,0,1-.09.39.72.72,0,0,1-.64.35Z" transform="translate(0 -4.37)"/><path class="cls-1" d="M116.68,31.68a2.5,2.5,0,0,1-1.38-.37,2.4,2.4,0,0,1-.92-1,3.67,3.67,0,0,1-.32-1.61,3.55,3.55,0,0,1,.32-1.55,2.68,2.68,0,0,1,.93-1.09,2.48,2.48,0,0,1,1.43-.41,2.37,2.37,0,0,1,1.47.43,2.52,2.52,0,0,1,.87,1.11,3.87,3.87,0,0,1,.28,1.49,3.5,3.5,0,0,1-.32,1.53,2.55,2.55,0,0,1-.92,1.1A2.44,2.44,0,0,1,116.68,31.68Zm.08-.52a1.15,1.15,0,0,0,.73-.22,1.62,1.62,0,0,0,.47-.59,2.82,2.82,0,0,0,.23-.78,4.74,4.74,0,0,0,.08-.82,5.08,5.08,0,0,0-.16-1.24,2.45,2.45,0,0,0-.51-1,1.21,1.21,0,0,0-.94-.39,1.19,1.19,0,0,0-.74.23,1.58,1.58,0,0,0-.46.58,3,3,0,0,0-.24.77,4.59,4.59,0,0,0-.07.81,5.63,5.63,0,0,0,.07.9,3.45,3.45,0,0,0,.27.86,1.74,1.74,0,0,0,.49.64A1.21,1.21,0,0,0,116.76,31.16Z" transform="translate(0 -4.37)"/><path class="cls-1" d="M120.2,31.54v-.35l.63-.2a.29.29,0,0,0,.15-.09.25.25,0,0,0,.07-.19V26.88a.33.33,0,0,0-.07-.21.63.63,0,0,0-.2-.13l-.57-.24V26l1.76-.33v.93h0a2.61,2.61,0,0,1,.6-.63,1.76,1.76,0,0,1,.59-.28,2.46,2.46,0,0,1,.6-.07,2,2,0,0,1,.88.2,1.42,1.42,0,0,1,.63.65,2.34,2.34,0,0,1,.24,1.13v3.09a.29.29,0,0,0,.06.21.31.31,0,0,0,.16.1l.55.2v.35h-2.54v-.35l.56-.2a.31.31,0,0,0,.15-.1.25.25,0,0,0,.07-.21V28a3.81,3.81,0,0,0-.09-.89,1,1,0,0,0-.34-.57,1.27,1.27,0,0,0-.77-.19,2.35,2.35,0,0,0-.71.12A1.31,1.31,0,0,0,122,27v3.75a.25.25,0,0,0,.07.19.29.29,0,0,0,.15.09l.5.2v.35Z" transform="translate(0 -4.37)"/><path class="cls-1" d="M47.24,42.72a3.59,3.59,0,0,1-2-.53A3.36,3.36,0,0,1,44,40.7a5.59,5.59,0,0,1-.43-2.26A5.09,5.09,0,0,1,44,36.26a3.52,3.52,0,0,1,1.27-1.52,3.42,3.42,0,0,1,2-.56,3.51,3.51,0,0,1,2.07.57,3.4,3.4,0,0,1,1.21,1.53,5.54,5.54,0,0,1,.4,2.16A5.87,5.87,0,0,1,50.72,40a4.2,4.2,0,0,1-.66,1.38,3.22,3.22,0,0,1-1.15,1A3.64,3.64,0,0,1,47.24,42.72Zm.1-.59a2,2,0,0,0,1.32-.45,2.76,2.76,0,0,0,.8-1.24,5.58,5.58,0,0,0,.27-1.8,6.89,6.89,0,0,0-.28-2,2.9,2.9,0,0,0-.86-1.35,2.21,2.21,0,0,0-1.46-.48,1.93,1.93,0,0,0-1.36.48A2.76,2.76,0,0,0,45,36.52a5.48,5.48,0,0,0-.25,1.71,6.55,6.55,0,0,0,.28,2,2.91,2.91,0,0,0,.85,1.38A2.15,2.15,0,0,0,47.34,42.13Z" transform="translate(0 -4.37)"/><path class="cls-1" d="M51.84,42.54v-.37l.7-.2a.37.37,0,0,0,.17-.1.3.3,0,0,0,.06-.2V37.32h-1l.05-.59h1a5.17,5.17,0,0,1,.34-1.82,2,2,0,0,1,2-1.33,3.55,3.55,0,0,1,.48.05,2.45,2.45,0,0,1,.51.14l-.08,1h-.18l-.34-.17a2.5,2.5,0,0,0-.38-.15,2.16,2.16,0,0,0-.46,0,1,1,0,0,0-.47.08.54.54,0,0,0-.25.22,2.22,2.22,0,0,0-.11.72q0,.54,0,1.32h1.6l-.06.59H53.8v4.35a.26.26,0,0,0,.07.2A.3.3,0,0,0,54,42l.81.2v.37Zm4.17,0v-.37l.7-.2a.32.32,0,0,0,.17-.1.3.3,0,0,0,.06-.2V37.32h-1l.05-.59h1a5,5,0,0,1,.33-1.82,2.15,2.15,0,0,1,.81-1,2.08,2.08,0,0,1,1.17-.32,3.52,3.52,0,0,1,.49.05,2.34,2.34,0,0,1,.5.14l-.08,1H60l-.35-.17a2.15,2.15,0,0,0-.38-.15,2.09,2.09,0,0,0-.46,0,1,1,0,0,0-.46.08.5.5,0,0,0-.25.22,2,2,0,0,0-.11.72q0,.54,0,1.32h1.6l-.06.59H58v4.35a.26.26,0,0,0,.07.2.27.27,0,0,0,.16.1l.82.2v.37Zm4.28,0v-.37L61,42a.32.32,0,0,0,.17-.1.26.26,0,0,0,.07-.2v-4a.28.28,0,0,0-.07-.21.46.46,0,0,0-.2-.13l-.71-.26V36.8l2-.34v5.21a.3.3,0,0,0,.06.2.27.27,0,0,0,.16.1l.74.2v.37Zm1.42-7.31a.78.78,0,0,1-.37-.09.75.75,0,0,1-.27-.26.7.7,0,0,1-.1-.38.71.71,0,0,1,.22-.55.75.75,0,0,1,.52-.2.77.77,0,0,1,.55.19.65.65,0,0,1,.22.52.78.78,0,0,1-.1.41.75.75,0,0,1-.27.26A.77.77,0,0,1,61.71,35.23Z" transform="translate(0 -4.37)"/><path class="cls-1" d="M68.66,41.11h.13v.57a5.59,5.59,0,0,1-.93.67,2.43,2.43,0,0,1-1.27.33,2.38,2.38,0,0,1-1.37-.4,2.52,2.52,0,0,1-.89-1.09A3.58,3.58,0,0,1,64,39.66a3.44,3.44,0,0,1,.24-1.29,3.38,3.38,0,0,1,.65-1,3.12,3.12,0,0,1,1-.7,3,3,0,0,1,1.19-.24,2.66,2.66,0,0,1,.74.08,2.16,2.16,0,0,1,.5.2l.34.17-.08,1.08h-.21l-.56-.37a3.08,3.08,0,0,0-.59-.33,1.88,1.88,0,0,0-.74-.13,1.18,1.18,0,0,0-.44.11,1,1,0,0,0-.38.28,1.7,1.7,0,0,0-.23.37,1.91,1.91,0,0,0-.2.6,4,4,0,0,0-.08.92,3.06,3.06,0,0,0,.48,1.83,1.67,1.67,0,0,0,1.43.66,1.57,1.57,0,0,0,.65-.13,3,3,0,0,0,.56-.3Z" transform="translate(0 -4.37)"/><path class="cls-1" d="M72.16,42.68a2.62,2.62,0,0,1-1.37-.36,2.45,2.45,0,0,1-1-1,3.79,3.79,0,0,1-.35-1.7A3.69,3.69,0,0,1,69.82,38a2.88,2.88,0,0,1,.94-1.15,2.42,2.42,0,0,1,1.43-.44,2.32,2.32,0,0,1,1.26.34,2.28,2.28,0,0,1,.79.87,2.57,2.57,0,0,1,.27,1.16,1.21,1.21,0,0,1,0,.18,1.27,1.27,0,0,1,0,.2.9.9,0,0,1,0,.18h-4l0-.52h2.9a3.43,3.43,0,0,0-.13-1,1.37,1.37,0,0,0-.4-.66,1.13,1.13,0,0,0-.75-.24,1.22,1.22,0,0,0-.76.22,1.48,1.48,0,0,0-.48.57,2.86,2.86,0,0,0-.26.78,4.48,4.48,0,0,0-.07.8,4.06,4.06,0,0,0,.19,1.29,1.92,1.92,0,0,0,.62.94,1.76,1.76,0,0,0,1.17.35,2.39,2.39,0,0,0,.77-.12,2.74,2.74,0,0,0,.62-.3,3,3,0,0,0,.44-.32h.12v.58a4.72,4.72,0,0,1-1,.66A3,3,0,0,1,72.16,42.68Z" transform="translate(0 -4.37)"/><path class="cls-1" d="M0,23.75a11.45,11.45,0,0,0,2.69,5.13c2.93,3,6.58,4,10.63,3.85,2.79-.08,5.57-.48,8.38-.12a14,14,0,0,1,4.35,1.16C29.56,35.51,30,39,27,41.55a9.4,9.4,0,0,1-5.47,1.87A19,19,0,0,1,5,37.11,18.94,18.94,0,0,1,.19,26.62,2.32,2.32,0,0,0,0,25.68Z" transform="translate(0 -4.37)"/><path class="cls-1" d="M8.16,8.4C6.75,10.31,7.39,12,9,13.3a21.6,21.6,0,0,0,6.49,3.5c2.76,1,5.58,1.91,8.35,2.9a21.83,21.83,0,0,1,6.78,3.78c2.55,2.16,4.1,4.78,3.47,8.31.07-4-2.23-6.4-5.4-8.25a21.07,21.07,0,0,0-4.6-1.91c-3.53-1.05-7.21-1.52-10.71-2.69a26.86,26.86,0,0,1-6.65-3A7,7,0,0,1,5.3,14.67,2.88,2.88,0,0,1,5.2,11,11.5,11.5,0,0,1,8.16,8.4Z" transform="translate(0 -4.37)"/><path class="cls-1" d="M32.14,34l-.24-1.55a7.22,7.22,0,0,0-3.57-4.12,22.74,22.74,0,0,0-9.08-2.61c-4.49-.51-9-.87-13.33-2.32a8.8,8.8,0,0,1-2.87-1.52C.87,20,.77,16.94,2.9,14.15V15.5a5.24,5.24,0,0,0,3.07,5A30.51,30.51,0,0,0,13.24,23c3.72.82,7.53,1.21,11.14,2.53a14.74,14.74,0,0,1,6.17,3.76,5.88,5.88,0,0,1,1.53,2.95l0,.18A8.76,8.76,0,0,1,32.14,34Z" transform="translate(0 -4.37)"/><path class="cls-1" d="M30.41,35,30,34c-1.31-2.4-3.6-3.28-6.06-3.81a32.91,32.91,0,0,0-8.35-.44c-3.67.16-7.32.15-10.8-1.34-3.86-1.64-5.44-5-4.07-9.08.06.6.08,1,.15,1.49.59,3.64,3.17,5.4,6.29,6.64,2.65,1.06,5.46,1.07,8.25,1.1a29.72,29.72,0,0,1,10,1.42c2,.74,3.81,1.74,4.68,3.86,0,.05,0,.1,0,.14C30.28,34.34,30.33,34.66,30.41,35Z" transform="translate(0 -4.37)"/><path class="cls-1" d="M33.58,37.43c-.31.28-.39.38-1,.86l.79-1a18,18,0,0,0,3.11-7.68A10.69,10.69,0,0,0,34,21.28c-2-2.62-4.84-4.28-7.73-5.8C23,13.77,19.52,12.42,16.12,11a27.32,27.32,0,0,1-3-1.47c-.83-.47-1.65-1-1.53-2.13s1-1.52,1.93-1.78c3.9-1.15,7.87-1.51,11.75-.11,7.13,2.56,11.9,7.4,13.3,15A18.81,18.81,0,0,1,33.58,37.43Z" transform="translate(0 -4.37)"/></g></g></svg>