<svg xmlns="http://www.w3.org/2000/svg" viewBox="0 0 126.82 39.15"><defs><style>.cls-1{fill:#fff;}</style></defs><g id="Layer_2" data-name="Layer 2"><g id="Layer_1-2" data-name="Layer 1"><path class="cls-1" d="M43.59,19.65v-.76l1.47-.49a.72.72,0,0,0,.33-.21.52.52,0,0,0,.13-.38V6.53a.53.53,0,0,0-.13-.38.7.7,0,0,0-.33-.2l-1.47-.48V4.71H56v4H55L54.2,6.52A1.3,1.3,0,0,0,54,6.23a.4.4,0,0,0-.29-.11h-5v5.06h3a.41.41,0,0,0,.32-.1.71.71,0,0,0,.14-.26l.66-1.72h.88v5.56h-.88L52.21,13a.86.86,0,0,0-.14-.27.38.38,0,0,0-.32-.11h-3v5.65h5.88a.36.36,0,0,0,.28-.1.67.67,0,0,0,.16-.29l.74-2.48h1v4.3Z" transform="translate(0 -4.37)"/><path class="cls-1" d="M58.54,19.05l-.19-4.29h1l.82,2.09a.71.71,0,0,0,.21.31,1.37,1.37,0,0,0,.27.24,6.65,6.65,0,0,0,1.07.54,10,10,0,0,0,1.25.39,4.54,4.54,0,0,0,1.06.14,3,3,0,0,0,2-.67,2.17,2.17,0,0,0,.76-1.69,1.82,1.82,0,0,0-.49-1.35,4.18,4.18,0,0,0-1.45-.87,14.83,14.83,0,0,0-1.68-.54,14.22,14.22,0,0,1-1.64-.53,4.5,4.5,0,0,1-2-1.57,4,4,0,0,1-.74-2.4,3.72,3.72,0,0,1,.76-2.3,5.2,5.2,0,0,1,2-1.59,6.52,6.52,0,0,1,2.77-.59,17,17,0,0,1,1.75.1c.58.07,1.13.16,1.66.26s1,.22,1.4.34v4h-1l-.76-2a.76.76,0,0,0-.2-.29A2.53,2.53,0,0,0,67,6.63a3.57,3.57,0,0,0-.78-.37,8.48,8.48,0,0,0-1-.27,4.66,4.66,0,0,0-.91-.1,2.46,2.46,0,0,0-1.8.62,1.84,1.84,0,0,0-.64,1.36,2.22,2.22,0,0,0,.43,1.38,3.27,3.27,0,0,0,1.56,1c.54.18,1.07.35,1.59.48a15,15,0,0,1,1.69.59,5.36,5.36,0,0,1,1.4.81,3.92,3.92,0,0,1,1.07,1.28A3.82,3.82,0,0,1,70,15.22a4.4,4.4,0,0,1-.66,2.3,4.79,4.79,0,0,1-2.06,1.78,8.11,8.11,0,0,1-3.59.69,12.78,12.78,0,0,1-1.71-.13c-.59-.09-1.17-.21-1.75-.35S59.06,19.21,58.54,19.05Z" transform="translate(0 -4.37)"/><path class="cls-1" d="M71.36,19.65v-.76l1.47-.49a.7.7,0,0,0,.33-.2.56.56,0,0,0,.13-.39V6.53a.56.56,0,0,0-.14-.39A.63.63,0,0,0,72.83,6l-1.47-.48V4.71H78.5v.76L77,6a.77.77,0,0,0-.34.2.55.55,0,0,0-.13.38V18.22h5.1a.34.34,0,0,0,.3-.17,1,1,0,0,0,.16-.35l.82-2.94h1v4.89Z" transform="translate(0 -4.37)"/><path class="cls-1" d="M85.1,19.05l-.19-4.29h1l.82,2.09a.71.71,0,0,0,.21.31,1.37,1.37,0,0,0,.27.24,6.65,6.65,0,0,0,1.07.54,10,10,0,0,0,1.25.39,4.54,4.54,0,0,0,1.06.14,3,3,0,0,0,2-.67,2.17,2.17,0,0,0,.76-1.69,1.82,1.82,0,0,0-.49-1.35,4.18,4.18,0,0,0-1.45-.87,14.83,14.83,0,0,0-1.68-.54,15,15,0,0,1-1.65-.53,4.52,4.52,0,0,1-2-1.57,4,4,0,0,1-.74-2.4,3.72,3.72,0,0,1,.76-2.3,5.2,5.2,0,0,1,2-1.59,6.52,6.52,0,0,1,2.77-.59,17,17,0,0,1,1.75.1c.58.07,1.13.16,1.66.26s1,.22,1.4.34v4h-1l-.76-2a.76.76,0,0,0-.2-.29,2.53,2.53,0,0,0-.26-.23,3.57,3.57,0,0,0-.78-.37,8.48,8.48,0,0,0-1-.27,4.66,4.66,0,0,0-.91-.1,2.46,2.46,0,0,0-1.8.62,1.84,1.84,0,0,0-.64,1.36,2.22,2.22,0,0,0,.43,1.38,3.27,3.27,0,0,0,1.56,1c.54.18,1.07.35,1.59.48a15,15,0,0,1,1.69.59,5.53,5.53,0,0,1,1.4.81,3.92,3.92,0,0,1,1.07,1.28,3.82,3.82,0,0,1,.42,1.84,4.4,4.4,0,0,1-.66,2.3A4.79,4.79,0,0,1,93.8,19.3a8.13,8.13,0,0,1-3.6.69,12.76,12.76,0,0,1-1.7-.13c-.59-.09-1.17-.21-1.75-.35S85.62,19.21,85.1,19.05Z" transform="translate(0 -4.37)"/><path class="cls-1" d="M110.25,16.38h.57v1.28a10.47,10.47,0,0,1-1.46,1,9.76,9.76,0,0,1-1.93.9,6.38,6.38,0,0,1-2.16.38,7.83,7.83,0,0,1-3.89-.94,6.49,6.49,0,0,1-2.56-2.68,8.9,8.9,0,0,1-.9-4.14,8.31,8.31,0,0,1,1-4.1,7,7,0,0,1,2.63-2.74,7.33,7.33,0,0,1,3.77-1,12.51,12.51,0,0,1,1.72.14c.63.09,1.24.19,1.85.31a10.9,10.9,0,0,1,1.45.38V9.05h-1l-.71-1.94a.61.61,0,0,0-.2-.28,2.23,2.23,0,0,0-.3-.2,6.94,6.94,0,0,0-1.25-.54,5,5,0,0,0-1.42-.2,3.47,3.47,0,0,0-2.94,1.5,7.41,7.41,0,0,0-1.1,4.43,7.39,7.39,0,0,0,1.26,4.64,4.38,4.38,0,0,0,3.65,1.62,5,5,0,0,0,1.62-.24,5,5,0,0,0,1.26-.63C109.57,16.94,109.92,16.67,110.25,16.38Z" transform="translate(0 -4.37)"/><path class="cls-1" d="M110.63,19.65v-.76l1-.43a1.06,1.06,0,0,0,.59-.6L116.53,7l1.29-2.49h1.77l5.23,13.38a1.16,1.16,0,0,0,.23.36,1.06,1.06,0,0,0,.34.24l1,.42v.76h-6.62v-.76l1.83-.53-3.47-8.78-.43-1.44h-.13l-3.88,10.17,1.81.58v.76ZM115,14.59l.55-1.4h4.2l.55,1.4Z" transform="translate(0 -4.37)"/><path class="cls-1" d="M42.94,31.54v-.38l.53-.22a.51.51,0,0,0,.29-.33l2.22-6,.65-1.37h.48l2.74,7.39a1.51,1.51,0,0,0,.12.2.43.43,0,0,0,.17.13l.54.2v.38H47.85v-.38l.94-.29-2-5.32-.24-.78h-.06l-2.16,6.08.93.31v.38Zm2.11-2.92.24-.68H47.8l.24.68Z" transform="translate(0 -4.37)"/><path class="cls-1" d="M55.68,30.11h.13v.57a5.59,5.59,0,0,1-.93.67,2.43,2.43,0,0,1-1.27.33,2.38,2.38,0,0,1-1.37-.4,2.59,2.59,0,0,1-.89-1.09A3.58,3.58,0,0,1,51,28.66a3.44,3.44,0,0,1,.23-1.29,3.38,3.38,0,0,1,.65-1,3,3,0,0,1,1-.7,2.91,2.91,0,0,1,1.19-.24,2.63,2.63,0,0,1,.73.08,2.47,2.47,0,0,1,.51.2l.33.17-.08,1.08h-.21l-.56-.37a3.08,3.08,0,0,0-.59-.33,1.86,1.86,0,0,0-.73-.13,1.1,1.1,0,0,0-.44.11,1.06,1.06,0,0,0-.39.28,2.28,2.28,0,0,0-.43,1,4,4,0,0,0-.08.92,3.06,3.06,0,0,0,.48,1.83,1.84,1.84,0,0,0,2.09.53,2.88,2.88,0,0,0,.55-.3Z" transform="translate(0 -4.37)"/><path class="cls-1" d="M61.17,30.11h.13v.57a5.59,5.59,0,0,1-.93.67,2.43,2.43,0,0,1-1.27.33,2.38,2.38,0,0,1-1.37-.4,2.52,2.52,0,0,1-.89-1.09,3.58,3.58,0,0,1-.32-1.53,3.44,3.44,0,0,1,.24-1.29,3.38,3.38,0,0,1,.65-1,3.12,3.12,0,0,1,1-.7,3,3,0,0,1,1.19-.24,2.66,2.66,0,0,1,.74.08,2.16,2.16,0,0,1,.5.2l.34.17-.08,1.08h-.21l-.56-.37a3.08,3.08,0,0,0-.59-.33,1.88,1.88,0,0,0-.74-.13,1.18,1.18,0,0,0-.44.11,1,1,0,0,0-.38.28,2.28,2.28,0,0,0-.43,1,4,4,0,0,0-.08.92,3.06,3.06,0,0,0,.48,1.83,1.67,1.67,0,0,0,1.43.66,1.57,1.57,0,0,0,.65-.13,3,3,0,0,0,.56-.3Z" transform="translate(0 -4.37)"/><path class="cls-1" d="M64.75,31.69a2.61,2.61,0,0,1-1.44-.39,2.53,2.53,0,0,1-1-1.08A3.92,3.92,0,0,1,62,28.55a3.84,3.84,0,0,1,.33-1.62,2.81,2.81,0,0,1,1-1.13,2.81,2.81,0,0,1,3,0,2.7,2.7,0,0,1,.9,1.15,4,4,0,0,1,.3,1.55,3.79,3.79,0,0,1-.34,1.6,2.68,2.68,0,0,1-1,1.14A2.54,2.54,0,0,1,64.75,31.69Zm.08-.54a1.19,1.19,0,0,0,.76-.24,1.63,1.63,0,0,0,.48-.61,3.06,3.06,0,0,0,.25-.81,5.29,5.29,0,0,0-.09-2.15,2.48,2.48,0,0,0-.53-1,1.25,1.25,0,0,0-1-.4,1.17,1.17,0,0,0-.76.23,1.6,1.6,0,0,0-.48.6,3.06,3.06,0,0,0-.25.81,5,5,0,0,0-.08.84,6.07,6.07,0,0,0,.08.94,3.29,3.29,0,0,0,.27.89,1.8,1.8,0,0,0,.52.66A1.25,1.25,0,0,0,64.83,31.15Z" transform="translate(0 -4.37)"/><path class="cls-1" d="M72.05,31.54v-.37l.57-.19a.39.39,0,0,0,.17-.11.32.32,0,0,0,.06-.2V27.89a4,4,0,0,0-.09-.92,1,1,0,0,0-.34-.59,1.2,1.2,0,0,0-.77-.21,2.1,2.1,0,0,0-.71.13,1.25,1.25,0,0,0-.62.47v3.9a.32.32,0,0,0,.06.2.54.54,0,0,0,.16.1l.53.2v.37H68.42v-.37l.64-.19a.31.31,0,0,0,.16-.11.26.26,0,0,0,.07-.2v-4a.38.38,0,0,0-.07-.22.48.48,0,0,0-.2-.12l-.6-.25v-.33l1.82-.35v1h.05a2.05,2.05,0,0,1,1.81-1,2.08,2.08,0,0,1,.71.12,1.55,1.55,0,0,1,.58.37,1.73,1.73,0,0,1,.39.71l.1.08v4a.24.24,0,0,0,.07.2.37.37,0,0,0,.16.1l.51.2v.37Zm3.55,0v-.37l.58-.19a.39.39,0,0,0,.17-.11.33.33,0,0,0,.06-.21V27.89a4,4,0,0,0-.09-.92,1,1,0,0,0-.34-.59,1.2,1.2,0,0,0-.77-.21,2.16,2.16,0,0,0-.74.15,1.25,1.25,0,0,0-.64.54l-.15-.22a3.34,3.34,0,0,1,.74-.86,1.78,1.78,0,0,1,.65-.34,3.15,3.15,0,0,1,.59-.07,1.91,1.91,0,0,1,.89.21,1.62,1.62,0,0,1,.65.67,2.57,2.57,0,0,1,.24,1.19v3.23a.27.27,0,0,0,.07.2.37.37,0,0,0,.16.1l.57.2v.37Z" transform="translate(0 -4.37)"/><path class="cls-1" d="M82.59,31.54v-.37l.56-.19a.34.34,0,0,0,.17-.11.32.32,0,0,0,.06-.2V27.89A4.09,4.09,0,0,0,83.3,27a1,1,0,0,0-.35-.59,1.17,1.17,0,0,0-.76-.21,2.11,2.11,0,0,0-.72.13,1.29,1.29,0,0,0-.62.47v3.9a.32.32,0,0,0,.07.2.44.44,0,0,0,.16.1l.52.2v.37H79v-.37L79.6,31a.36.36,0,0,0,.16-.11.3.3,0,0,0,.06-.2v-4a.32.32,0,0,0-.07-.22.43.43,0,0,0-.2-.12L79,26.1v-.33l1.82-.35v1h0a2.23,2.23,0,0,1,.89-.82,2.28,2.28,0,0,1,.92-.2,2,2,0,0,1,.7.12,1.59,1.59,0,0,1,.59.37,1.72,1.72,0,0,1,.38.71l.11.08v4a.28.28,0,0,0,.06.2.54.54,0,0,0,.16.1l.51.2v.37Zm3.55,0v-.37l.58-.19a.31.31,0,0,0,.16-.11.33.33,0,0,0,.07-.21V27.89a4,4,0,0,0-.09-.92,1,1,0,0,0-.34-.59,1.23,1.23,0,0,0-.78-.21,2.11,2.11,0,0,0-.73.15,1.27,1.27,0,0,0-.65.54l-.15-.22a3.54,3.54,0,0,1,.74-.86,1.74,1.74,0,0,1,.66-.34,3.05,3.05,0,0,1,.58-.07,1.93,1.93,0,0,1,.9.21,1.62,1.62,0,0,1,.65.67A2.57,2.57,0,0,1,88,27.44v3.23a.32.32,0,0,0,.06.2.54.54,0,0,0,.16.1l.57.2v.37Z" transform="translate(0 -4.37)"/><path class="cls-1" d="M89.46,31.54v-.37l.75-.2a.32.32,0,0,0,.17-.1.3.3,0,0,0,.07-.2v-4a.33.33,0,0,0-.07-.21.44.44,0,0,0-.21-.13l-.7-.26V25.8l2-.34v5.21a.26.26,0,0,0,.07.2.25.25,0,0,0,.16.1l.73.2v.37Zm1.42-7.31a.78.78,0,0,1-.37-.09.62.62,0,0,1-.27-.26.7.7,0,0,1-.11-.38.75.75,0,0,1,.22-.55.79.79,0,0,1,.53-.2.78.78,0,0,1,.55.19.65.65,0,0,1,.22.52.78.78,0,0,1-.1.41.8.8,0,0,1-.67.36Z" transform="translate(0 -4.37)"/><path class="cls-1" d="M95.42,31.66a2,2,0,0,1-1.2-.38,2.41,2.41,0,0,1-.77-1,3.92,3.92,0,0,1-.27-1.49,4.44,4.44,0,0,1,.32-1.7,3,3,0,0,1,.93-1.22,2.37,2.37,0,0,1,1.45-.46,1.74,1.74,0,0,1,.84.18,2.19,2.19,0,0,1,.55.41V23.85a.31.31,0,0,0-.07-.22.37.37,0,0,0-.2-.13l-.74-.28V22.9l2-.22v7.7a.28.28,0,0,0,.07.21.44.44,0,0,0,.21.13l.6.24v.33l-1.78.36h-.06v-1h0a2.23,2.23,0,0,1-.68.69,1.75,1.75,0,0,1-.67.27A3,3,0,0,1,95.42,31.66Zm.58-.79a2.47,2.47,0,0,0,.43-.05,1.75,1.75,0,0,0,.47-.2,1.06,1.06,0,0,0,.37-.36V26.34a1.28,1.28,0,0,0-.37-.18,2.73,2.73,0,0,0-.48-.1A2.13,2.13,0,0,0,96,26a1.5,1.5,0,0,0-1,.32,1.91,1.91,0,0,0-.59.84,3.55,3.55,0,0,0-.19,1.15,4.41,4.41,0,0,0,.18,1.31,1.84,1.84,0,0,0,.57.9A1.43,1.43,0,0,0,96,30.87Z" transform="translate(0 -4.37)"/><path class="cls-1" d="M101.57,31.66a1.49,1.49,0,0,1-1.4-.85A1.71,1.71,0,0,1,100,30a1.66,1.66,0,0,1,.27-1,2.09,2.09,0,0,1,.69-.63,3.21,3.21,0,0,1,.89-.34,4,4,0,0,1,.86-.11l.24,0,.34,0,.24,0v-.92a1.07,1.07,0,0,0-.27-.85,1,1,0,0,0-.72-.23,1.58,1.58,0,0,0-.56.1,2.38,2.38,0,0,0-.51.24c-.17.1-.32.21-.46.31l-.35.26h-.19l-.08-1.06.59-.24a4.07,4.07,0,0,1,1.51-.28,2.93,2.93,0,0,1,1,.17,1.64,1.64,0,0,1,.79.59,1.86,1.86,0,0,1,.3,1.18l0,3.15a.39.39,0,0,0,.15.32.53.53,0,0,0,.35.12.72.72,0,0,0,.25,0,2,2,0,0,0,.27-.1h.08v.41l-.29.2a3.17,3.17,0,0,1-.41.21,1.08,1.08,0,0,1-.4.09,1,1,0,0,1-.72-.24,1.06,1.06,0,0,1-.24-.78h0a2.13,2.13,0,0,1-.64.66,2.26,2.26,0,0,1-.69.29A2.94,2.94,0,0,1,101.57,31.66Zm.53-.77a2.27,2.27,0,0,0,.76-.15,1.35,1.35,0,0,0,.65-.49V28.48a6,6,0,0,0-1.27.12,1.65,1.65,0,0,0-.85.4,1,1,0,0,0-.3.79,1.28,1.28,0,0,0,.15.67.84.84,0,0,0,.4.33A1.09,1.09,0,0,0,102.1,30.89Z" transform="translate(0 -4.37)"/><path class="cls-1" d="M109.82,25.56l-.08.59h-1.93v4a.49.49,0,0,0,.19.41,1.07,1.07,0,0,0,.45.23,1.52,1.52,0,0,0,.43.07,2,2,0,0,0,.44-.06,1.61,1.61,0,0,0,.34-.13h.15v.42l-.35.2a3,3,0,0,1-.54.24,1.76,1.76,0,0,1-.64.11,1.87,1.87,0,0,1-.76-.14,1.3,1.3,0,0,1-.54-.41,1,1,0,0,1-.21-.64v-4.3h-.91V25.7l.52-.12a.69.69,0,0,0,.35-.24,1.07,1.07,0,0,0,.16-.56l0-.79.87-.19v1.76Z" transform="translate(0 -4.37)"/><path class="cls-1" d="M110.35,31.54v-.37l.75-.2a.32.32,0,0,0,.17-.1.26.26,0,0,0,.07-.2v-4a.33.33,0,0,0-.07-.21.44.44,0,0,0-.21-.13l-.7-.26V25.8l2-.34v5.21a.3.3,0,0,0,.07.2.25.25,0,0,0,.16.1l.73.2v.37Zm1.42-7.31a.78.78,0,0,1-.37-.09.62.62,0,0,1-.27-.26.7.7,0,0,1-.1-.38.74.74,0,0,1,.21-.55.79.79,0,0,1,.53-.2.78.78,0,0,1,.55.19.65.65,0,0,1,.22.52.78.78,0,0,1-.1.41.8.8,0,0,1-.67.36Z" transform="translate(0 -4.37)"/><path class="cls-1" d="M116.8,31.69a2.63,2.63,0,0,1-1.44-.39,2.45,2.45,0,0,1-1-1.08,3.77,3.77,0,0,1-.34-1.67,3.7,3.7,0,0,1,.34-1.62,2.71,2.71,0,0,1,1-1.13,2.54,2.54,0,0,1,1.49-.43,2.48,2.48,0,0,1,1.53.45,2.55,2.55,0,0,1,.9,1.15,4,4,0,0,1,.3,1.55,3.78,3.78,0,0,1-.33,1.6,2.83,2.83,0,0,1-1,1.14A2.57,2.57,0,0,1,116.8,31.69Zm.08-.54a1.22,1.22,0,0,0,.77-.24,1.63,1.63,0,0,0,.48-.61,3.48,3.48,0,0,0,.25-.81,6.48,6.48,0,0,0,.07-.85,5.58,5.58,0,0,0-.16-1.3,2.48,2.48,0,0,0-.53-1,1.26,1.26,0,0,0-1-.4,1.2,1.2,0,0,0-.77.23,1.6,1.6,0,0,0-.48.6,3.06,3.06,0,0,0-.25.81,4.92,4.92,0,0,0-.07.84,5,5,0,0,0,.08.94,3.29,3.29,0,0,0,.27.89,1.89,1.89,0,0,0,.51.66A1.27,1.27,0,0,0,116.88,31.15Z" transform="translate(0 -4.37)"/><path class="cls-1" d="M120.46,31.54v-.37l.65-.2a.37.37,0,0,0,.17-.1.3.3,0,0,0,.06-.2v-4a.32.32,0,0,0-.07-.22.69.69,0,0,0-.21-.13l-.59-.25v-.32l1.83-.35v1h0a2.59,2.59,0,0,1,.62-.65,1.88,1.88,0,0,1,.61-.29,2.7,2.7,0,0,1,.62-.08,2,2,0,0,1,.92.21,1.58,1.58,0,0,1,.66.67,2.57,2.57,0,0,1,.24,1.19v3.21a.34.34,0,0,0,.07.22.39.39,0,0,0,.16.1l.57.2v.37h-2.64v-.37l.58-.2a.37.37,0,0,0,.16-.1.29.29,0,0,0,.07-.22V27.89a4,4,0,0,0-.09-.92,1,1,0,0,0-.36-.59,1.24,1.24,0,0,0-.79-.21,2.22,2.22,0,0,0-.74.13,1.3,1.3,0,0,0-.64.47v3.9a.3.3,0,0,0,.07.2.39.39,0,0,0,.16.1l.52.2v.37Z" transform="translate(0 -4.37)"/><path class="cls-1" d="M47.24,42.72a3.59,3.59,0,0,1-2-.53A3.28,3.28,0,0,1,44,40.7a5.42,5.42,0,0,1-.44-2.26A5.09,5.09,0,0,1,44,36.26a3.59,3.59,0,0,1,1.27-1.52,3.42,3.42,0,0,1,2-.56,3.51,3.51,0,0,1,2.07.57,3.4,3.4,0,0,1,1.21,1.53,5.54,5.54,0,0,1,.4,2.16A5.87,5.87,0,0,1,50.72,40a4.2,4.2,0,0,1-.66,1.38,3.22,3.22,0,0,1-1.15,1A3.61,3.61,0,0,1,47.24,42.72Zm.1-.59a2,2,0,0,0,1.32-.45,2.76,2.76,0,0,0,.8-1.24,5.58,5.58,0,0,0,.27-1.8,6.89,6.89,0,0,0-.28-2,2.9,2.9,0,0,0-.86-1.35,2.21,2.21,0,0,0-1.46-.48,1.93,1.93,0,0,0-1.36.48A2.76,2.76,0,0,0,45,36.52a5.48,5.48,0,0,0-.25,1.71,6.55,6.55,0,0,0,.28,2,2.91,2.91,0,0,0,.85,1.38A2.15,2.15,0,0,0,47.34,42.13Z" transform="translate(0 -4.37)"/><path class="cls-1" d="M51.84,42.54v-.37l.7-.2a.37.37,0,0,0,.17-.1.3.3,0,0,0,.06-.2V37.32h-1l.05-.59h1a5.17,5.17,0,0,1,.34-1.82,2,2,0,0,1,2-1.33,3.55,3.55,0,0,1,.48.05,2.45,2.45,0,0,1,.51.14l-.08,1h-.18l-.34-.17a2.5,2.5,0,0,0-.38-.15,2.16,2.16,0,0,0-.46,0,1,1,0,0,0-.47.08.54.54,0,0,0-.25.22,2.22,2.22,0,0,0-.11.72q0,.54,0,1.32h1.6l-.06.59H53.8v4.35a.26.26,0,0,0,.07.2A.3.3,0,0,0,54,42l.81.2v.37Zm4.17,0v-.37l.7-.2a.29.29,0,0,0,.17-.1.3.3,0,0,0,.07-.2V37.32h-1l.05-.59h1a5,5,0,0,1,.33-1.82,2.15,2.15,0,0,1,.81-1,2.08,2.08,0,0,1,1.17-.32,3.52,3.52,0,0,1,.49.05,2.64,2.64,0,0,1,.51.14l-.09,1H60l-.35-.17a2.15,2.15,0,0,0-.38-.15,2.09,2.09,0,0,0-.46,0,1,1,0,0,0-.46.08.5.5,0,0,0-.25.22,2,2,0,0,0-.11.72q0,.54,0,1.32h1.6l-.06.59H58v4.35a.26.26,0,0,0,.07.2.27.27,0,0,0,.16.1l.82.2v.37Zm4.28,0v-.37L61,42a.32.32,0,0,0,.17-.1.26.26,0,0,0,.07-.2v-4a.28.28,0,0,0-.07-.21.46.46,0,0,0-.2-.13l-.71-.26V36.8l2-.34v5.21a.3.3,0,0,0,.06.2.27.27,0,0,0,.16.1l.74.2v.37Zm1.42-7.31a.78.78,0,0,1-.37-.09.75.75,0,0,1-.27-.26.7.7,0,0,1-.1-.38.71.71,0,0,1,.22-.55.75.75,0,0,1,.52-.2.81.81,0,0,1,.56.19.67.67,0,0,1,.21.52.78.78,0,0,1-.1.41.75.75,0,0,1-.27.26A.77.77,0,0,1,61.71,35.23Z" transform="translate(0 -4.37)"/><path class="cls-1" d="M69.85,41.11H70v.57a5.1,5.1,0,0,1-.92.67,2.59,2.59,0,0,1-2.65-.07,2.67,2.67,0,0,1-.89-1.09,3.58,3.58,0,0,1-.31-1.53,3.44,3.44,0,0,1,.24-1.29,3.2,3.2,0,0,1,.65-1,2.9,2.9,0,0,1,1-.7,3,3,0,0,1,1.19-.24,2.7,2.7,0,0,1,.74.08,2.36,2.36,0,0,1,.5.2l.33.17-.08,1.08h-.21L69,37.55a3.08,3.08,0,0,0-.59-.33,1.92,1.92,0,0,0-.74-.13,1.14,1.14,0,0,0-.44.11,1,1,0,0,0-.38.28,1.69,1.69,0,0,0-.24.37,2.62,2.62,0,0,0-.2.6,4.69,4.69,0,0,0-.08.92,3,3,0,0,0,.49,1.83,1.65,1.65,0,0,0,1.42.66,1.59,1.59,0,0,0,.66-.13,3,3,0,0,0,.56-.3Z" transform="translate(0 -4.37)"/><path class="cls-1" d="M73.36,42.68A2.68,2.68,0,0,1,72,42.32a2.49,2.49,0,0,1-1-1,3.79,3.79,0,0,1-.35-1.7A3.69,3.69,0,0,1,71,38,2.8,2.8,0,0,1,72,36.81a2.42,2.42,0,0,1,1.43-.44,2.26,2.26,0,0,1,1.25.34,2.13,2.13,0,0,1,.79.87,2.45,2.45,0,0,1,.28,1.16s0,.11,0,.18,0,.14,0,.2,0,.13,0,.18h-4l0-.52H74.6a3.45,3.45,0,0,0-.12-1,1.38,1.38,0,0,0-.41-.66,1.1,1.1,0,0,0-.74-.24,1.22,1.22,0,0,0-.76.22,1.51,1.51,0,0,0-.49.57,2.85,2.85,0,0,0-.25.78,4.48,4.48,0,0,0-.07.8,4.37,4.37,0,0,0,.18,1.29,2,2,0,0,0,.62.94,1.79,1.79,0,0,0,1.18.35,2.33,2.33,0,0,0,.76-.12,2.63,2.63,0,0,0,.63-.3,3,3,0,0,0,.44-.32h.12v.58a4.81,4.81,0,0,1-1,.66A3,3,0,0,1,73.36,42.68Z" transform="translate(0 -4.37)"/><path class="cls-1" d="M0,23.75a11.45,11.45,0,0,0,2.69,5.13c2.93,3,6.58,4,10.63,3.85,2.79-.08,5.57-.48,8.38-.12a14,14,0,0,1,4.35,1.16C29.56,35.51,30,39,27,41.55a9.4,9.4,0,0,1-5.47,1.87A19,19,0,0,1,5,37.11,18.94,18.94,0,0,1,.19,26.62,2.32,2.32,0,0,0,0,25.68Z" transform="translate(0 -4.37)"/><path class="cls-1" d="M8.16,8.4C6.75,10.31,7.39,12,9,13.3a21.6,21.6,0,0,0,6.49,3.5c2.76,1,5.58,1.91,8.35,2.9a21.63,21.63,0,0,1,6.78,3.78c2.55,2.16,4.1,4.78,3.47,8.31.07-4-2.23-6.4-5.4-8.25a21.07,21.07,0,0,0-4.6-1.91c-3.53-1.05-7.21-1.52-10.71-2.69a26.86,26.86,0,0,1-6.65-3A7,7,0,0,1,5.3,14.67,2.88,2.88,0,0,1,5.2,11,11.5,11.5,0,0,1,8.16,8.4Z" transform="translate(0 -4.37)"/><path class="cls-1" d="M32.14,34l-.24-1.55a7.22,7.22,0,0,0-3.57-4.12,22.74,22.74,0,0,0-9.08-2.61c-4.49-.51-9-.87-13.33-2.32a8.8,8.8,0,0,1-2.87-1.52C.87,20,.77,16.94,2.9,14.15v1.34a5.23,5.23,0,0,0,3.07,5A30.09,30.09,0,0,0,13.24,23c3.72.82,7.53,1.21,11.14,2.53a14.74,14.74,0,0,1,6.17,3.76,5.88,5.88,0,0,1,1.53,2.95l0,.18A8.76,8.76,0,0,1,32.14,34Z" transform="translate(0 -4.37)"/><path class="cls-1" d="M30.41,35,30,34c-1.31-2.4-3.6-3.28-6.06-3.81a32.45,32.45,0,0,0-8.35-.44c-3.67.16-7.32.15-10.8-1.34-3.86-1.64-5.44-5-4.07-9.08.06.6.08,1,.15,1.49.59,3.64,3.17,5.4,6.29,6.64,2.65,1.05,5.46,1.07,8.25,1.1a29.72,29.72,0,0,1,10,1.42c2,.74,3.81,1.74,4.68,3.86,0,.05,0,.1,0,.14C30.28,34.34,30.33,34.66,30.41,35Z" transform="translate(0 -4.37)"/><path class="cls-1" d="M33.58,37.43c-.31.28-.39.38-1,.86l.79-1a18,18,0,0,0,3.11-7.68A10.69,10.69,0,0,0,34,21.28c-2-2.62-4.84-4.28-7.73-5.8C23,13.77,19.52,12.42,16.12,11a25.59,25.59,0,0,1-3-1.46c-.83-.47-1.65-1-1.53-2.13s1-1.52,1.93-1.79c3.9-1.14,7.87-1.5,11.75-.1,7.13,2.56,11.9,7.4,13.3,15A18.81,18.81,0,0,1,33.58,37.43Z" transform="translate(0 -4.37)"/></g></g></svg>